<svg width="28" height="23" viewBox="0 0 28 23" fill="none" xmlns="http://www.w3.org/2000/svg">
<path d="M24.942 5.47461C24.8745 5.52406 24.8362 5.60403 24.84 5.68764C24.8505 5.91935 24.8505 6.152 24.8505 6.39125C24.8505 13.6179 19.3602 21.9454 9.34329 21.9454C6.72347 21.9454 4.16227 21.2882 1.87901 20.0254C1.9765 20.0283 2.07423 20.0298 2.17209 20.0298C4.72281 20.0298 7.19657 19.177 9.20643 17.5931C9.28943 17.5277 9.32234 17.4172 9.28864 17.317C9.25495 17.2169 9.16192 17.1487 9.05627 17.1468C6.93614 17.1079 5.05181 15.8017 4.25755 13.8527C4.99036 13.9392 5.73262 13.883 6.45086 13.6839C6.5622 13.653 6.6379 13.5499 6.63395 13.4344C6.63 13.319 6.54744 13.2212 6.43425 13.1981C4.07329 12.7146 2.35064 10.7166 2.19585 8.3434C2.90225 8.67216 3.66119 8.85343 4.44478 8.8726C4.55608 8.87532 4.65576 8.80412 4.68929 8.69796C4.72281 8.5918 4.6821 8.47626 4.58943 8.41457C2.36088 6.93104 1.61208 4.02765 2.77858 1.65907C5.62529 5.00914 9.74041 7.04445 14.1257 7.26919C14.2042 7.27321 14.2801 7.24006 14.3304 7.1797C14.3808 7.11934 14.3999 7.03879 14.3819 6.96226C13.9488 5.12145 14.5365 3.18684 15.9084 1.89367L15.9086 1.89347C18.0436 -0.123798 21.3947 -0.0200265 23.395 2.12075C23.4537 2.18351 23.5404 2.21177 23.6248 2.19558C24.667 1.99561 25.6718 1.64662 26.6147 1.16104C26.17 2.11725 25.4494 2.92317 24.5399 3.46883C24.4388 3.52945 24.3938 3.65243 24.4319 3.76396C24.47 3.87549 24.5808 3.9453 24.6978 3.93148C25.5348 3.83272 26.3526 3.63633 27.1422 3.35639C26.5096 4.15547 25.7677 4.87003 24.942 5.47461Z" stroke="white" stroke-width="0.5" stroke-linejoin="round"/>
</svg>
