<svg width="24" height="18" viewBox="0 0 24 18" fill="none" xmlns="http://www.w3.org/2000/svg">
<mask id="path-1-inside-1" fill="white">
<path d="M0.0722656 6.96873C0.0722656 4.72852 0.0722656 3.60841 0.50824 2.75276C0.891733 2.00012 1.50366 1.38819 2.2563 1.0047C3.11195 0.568726 4.23206 0.568726 6.47227 0.568726L16.6723 0.568726C18.9125 0.568726 20.0326 0.568726 20.8882 1.0047C21.6409 1.38819 22.2528 2.00012 22.6363 2.75276C23.0723 3.60841 23.0723 4.72852 23.0723 6.96873V11.3464C23.0723 13.5866 23.0723 14.7067 22.6363 15.5624C22.2528 16.315 21.6409 16.9269 20.8882 17.3104C20.0326 17.7464 18.9125 17.7464 16.6723 17.7464H6.47226C4.23206 17.7464 3.11195 17.7464 2.2563 17.3104C1.50366 16.9269 0.891733 16.315 0.50824 15.5624C0.0722656 14.7067 0.0722656 13.5866 0.0722656 11.3464L0.0722656 6.96873Z"/>
</mask>
<path d="M21.3955 16.2455C21.4931 16.3431 21.6514 16.3431 21.749 16.2455C21.8467 16.1479 21.8467 15.9896 21.749 15.8919L21.3955 16.2455ZM1.39549 15.8919C1.29786 15.9896 1.29786 16.1479 1.39549 16.2455C1.49312 16.3431 1.65141 16.3431 1.74904 16.2455L1.39549 15.8919ZM12.0358 11.374L11.9585 11.1362L12.0358 11.374ZM11.1087 11.374L11.0315 11.6118L11.1087 11.374ZM13.4461 10.5484L14.749 9.2455L14.3955 8.89195L13.0925 10.1949L13.4461 10.5484ZM14.749 9.2455L21.749 2.2455L21.3955 1.89195L14.3955 8.89195L14.749 9.2455ZM21.749 15.8919L14.749 8.89195L14.3955 9.2455L21.3955 16.2455L21.749 15.8919ZM1.39549 2.2455L8.39549 9.2455L8.74904 8.89195L1.74904 1.89195L1.39549 2.2455ZM8.39549 9.2455L9.69843 10.5484L10.052 10.1949L8.74904 8.89195L8.39549 9.2455ZM1.74904 16.2455L8.74904 9.2455L8.39549 8.89195L1.39549 15.8919L1.74904 16.2455ZM13.0925 10.1949C12.7926 10.4948 12.5782 10.709 12.3964 10.8633C12.2169 11.0157 12.0859 11.0948 11.9585 11.1362L12.113 11.6118C12.3282 11.5419 12.5169 11.4169 12.72 11.2444C12.9209 11.0739 13.152 10.8425 13.4461 10.5484L13.0925 10.1949ZM9.69843 10.5484C9.99253 10.8425 10.2236 11.0739 10.4245 11.2444C10.6276 11.4169 10.8164 11.5419 11.0315 11.6118L11.186 11.1362C11.0586 11.0948 10.9276 11.0157 10.7481 10.8633C10.5664 10.709 10.3519 10.4948 10.052 10.1949L9.69843 10.5484ZM11.9585 11.1362C11.7075 11.2178 11.437 11.2178 11.186 11.1362L11.0315 11.6118C11.383 11.726 11.7616 11.726 12.113 11.6118L11.9585 11.1362ZM2.2563 17.3104L2.02931 17.7559L2.2563 17.3104ZM0.50824 15.5624L0.0627363 15.7894L0.50824 15.5624ZM22.6363 15.5624L22.1908 15.3354L22.6363 15.5624ZM20.8882 17.3104L20.6612 16.8649L20.8882 17.3104ZM22.6363 2.75276L22.1908 2.97976L22.6363 2.75276ZM20.8882 1.0047L21.1152 0.559196L20.8882 1.0047ZM0.50824 2.75276L0.0627363 2.52577L0.50824 2.75276ZM2.2563 1.0047L2.02931 0.559196L2.2563 1.0047ZM22.5723 6.96873V11.3464H23.5723V6.96873H22.5723ZM16.6723 17.2464H6.47226V18.2464H16.6723V17.2464ZM0.572266 11.3464L0.572266 6.96873H-0.427734L-0.427734 11.3464H0.572266ZM6.47227 1.06873L16.6723 1.06873V0.0687256L6.47227 0.0687256V1.06873ZM6.47226 17.2464C5.34391 17.2464 4.52771 17.246 3.88579 17.1936C3.2497 17.1416 2.82889 17.041 2.4833 16.8649L2.02931 17.7559C2.53937 18.0158 3.10643 18.1332 3.80436 18.1902C4.49645 18.2468 5.36041 18.2464 6.47226 18.2464V17.2464ZM-0.427734 11.3464C-0.427734 12.4583 -0.428123 13.3222 -0.371577 14.0143C-0.314554 14.7122 -0.197151 15.2793 0.0627363 15.7894L0.953743 15.3354C0.777656 14.9898 0.677072 14.569 0.625102 13.9329C0.572654 13.291 0.572266 12.4748 0.572266 11.3464H-0.427734ZM2.4833 16.8649C1.82473 16.5294 1.2893 15.9939 0.953743 15.3354L0.0627363 15.7894C0.494166 16.6361 1.18258 17.3245 2.02931 17.7559L2.4833 16.8649ZM22.5723 11.3464C22.5723 12.4748 22.5719 13.291 22.5194 13.9329C22.4675 14.569 22.3669 14.9898 22.1908 15.3354L23.0818 15.7894C23.3417 15.2793 23.4591 14.7122 23.5161 14.0143C23.5727 13.3222 23.5723 12.4583 23.5723 11.3464H22.5723ZM16.6723 18.2464C17.7841 18.2464 18.6481 18.2468 19.3402 18.1902C20.0381 18.1332 20.6052 18.0158 21.1152 17.7559L20.6612 16.8649C20.3156 17.041 19.8948 17.1416 19.2587 17.1936C18.6168 17.246 17.8006 17.2464 16.6723 17.2464V18.2464ZM22.1908 15.3354C21.8552 15.9939 21.3198 16.5294 20.6612 16.8649L21.1152 17.7559C21.962 17.3245 22.6504 16.6361 23.0818 15.7894L22.1908 15.3354ZM23.5723 6.96873C23.5723 5.85687 23.5727 4.99291 23.5161 4.30082C23.4591 3.60289 23.3417 3.03583 23.0818 2.52577L22.1908 2.97976C22.3669 3.32535 22.4675 3.74616 22.5194 4.38225C22.5719 5.02417 22.5723 5.84037 22.5723 6.96873H23.5723ZM16.6723 1.06873C17.8006 1.06873 18.6168 1.06911 19.2587 1.12156C19.8948 1.17353 20.3156 1.27412 20.6612 1.4502L21.1152 0.559196C20.6052 0.299309 20.0381 0.181906 19.3402 0.124883C18.6481 0.0683367 17.7841 0.0687256 16.6723 0.0687256V1.06873ZM23.0818 2.52577C22.6504 1.67904 21.962 0.990626 21.1152 0.559196L20.6612 1.4502C21.3198 1.78576 21.8552 2.32119 22.1908 2.97976L23.0818 2.52577ZM0.572266 6.96873C0.572266 5.84037 0.572654 5.02417 0.625102 4.38225C0.677072 3.74616 0.777656 3.32535 0.953743 2.97976L0.0627363 2.52577C-0.197151 3.03583 -0.314554 3.60289 -0.371577 4.30082C-0.428123 4.99291 -0.427734 5.85687 -0.427734 6.96873H0.572266ZM6.47227 0.0687256C5.36041 0.0687256 4.49645 0.0683367 3.80436 0.124883C3.10643 0.181906 2.53937 0.299309 2.02931 0.559196L2.4833 1.4502C2.82889 1.27412 3.2497 1.17353 3.88579 1.12156C4.52771 1.06911 5.34391 1.06873 6.47227 1.06873V0.0687256ZM0.953743 2.97976C1.2893 2.32119 1.82473 1.78576 2.4833 1.4502L2.02931 0.559196C1.18258 0.990626 0.494166 1.67904 0.0627363 2.52577L0.953743 2.97976Z" fill="white" mask="url(#path-1-inside-1)"/>
</svg>
