<svg width="27" height="27" viewBox="0 0 27 27" fill="none" xmlns="http://www.w3.org/2000/svg">
<mask id="path-1-inside-1" fill="white">
<path d="M12.187 4.48215C12.8561 3.81313 13.1906 3.47862 13.5249 3.25695C14.8647 2.36861 16.6061 2.36861 17.9458 3.25695C18.2801 3.47862 18.6146 3.81313 19.2837 4.48215L22.8192 8.01768C23.288 8.48653 23.5225 8.72095 23.6913 8.94527C24.7636 10.3698 24.7636 12.3319 23.6913 13.7564C23.5225 13.9807 23.288 14.2152 22.8192 14.684L15.3996 22.1036C13.8155 23.6877 13.0235 24.4797 12.1102 24.7765C11.3068 25.0375 10.4414 25.0375 9.63801 24.7765C8.7247 24.4797 7.93267 23.6877 6.3486 22.1036L4.98256 20.7376C3.39849 19.1535 2.60646 18.3615 2.30971 17.4482C2.04868 16.6448 2.04868 15.7794 2.30971 14.976C2.60646 14.0627 3.39849 13.2707 4.98256 11.6866L12.187 4.48215Z"/>
</mask>
<path d="M18.7645 6.23233L18.5344 6.32993L18.5344 6.32993L18.7645 6.23233ZM19.0183 4.97285L19.2382 5.09177L19.2382 5.09177L19.0183 4.97285ZM18.6914 5.73077L18.9398 5.75857L18.9398 5.75857L18.6914 5.73077ZM22.3285 8.28304L22.2096 8.06314L22.2096 8.06314L22.3285 8.28304ZM21.5706 8.60998L21.5428 8.36153L21.5428 8.36153L21.5706 8.60998ZM21.069 8.53682L20.9714 8.76699L20.9714 8.76699L21.069 8.53682ZM5.54626 17.866C5.44863 17.7684 5.29034 17.7684 5.19271 17.866C5.09508 17.9636 5.09508 18.1219 5.19271 18.2195L5.54626 17.866ZM9.0818 22.1086C9.17943 22.2063 9.33772 22.2063 9.43535 22.1086C9.53298 22.011 9.53298 21.8527 9.43535 21.7551L9.0818 22.1086ZM22.7003 7.79778L22.2096 8.06314L22.4474 8.50295L22.9381 8.23758L22.7003 7.79778ZM20.6128 7.83025L19.4711 6.68853L19.1175 7.04208L20.2593 8.1838L20.6128 7.83025ZM19.2382 5.09177L19.5036 4.60107L19.0638 4.36323L18.7984 4.85393L19.2382 5.09177ZM19.4711 6.68853C19.1529 6.37034 19.047 6.2582 18.9947 6.13473L18.5344 6.32993C18.6339 6.56473 18.8306 6.75515 19.1175 7.04208L19.4711 6.68853ZM18.7984 4.85393C18.6054 5.21086 18.4713 5.44953 18.4429 5.70298L18.9398 5.75857C18.9547 5.62529 19.0242 5.48758 19.2382 5.09177L18.7984 4.85393ZM18.9947 6.13473C18.9444 6.01614 18.9255 5.88659 18.9398 5.75857L18.4429 5.70298C18.419 5.91635 18.4505 6.13227 18.5344 6.32993L18.9947 6.13473ZM22.2096 8.06314C21.8138 8.27719 21.676 8.34662 21.5428 8.36153L21.5984 8.85843C21.8518 8.83008 22.0905 8.69597 22.4474 8.50295L22.2096 8.06314ZM20.2593 8.1838C20.5462 8.47073 20.7366 8.66742 20.9714 8.76699L21.1666 8.30666C21.0431 8.25431 20.931 8.14844 20.6128 7.83025L20.2593 8.1838ZM21.5428 8.36153C21.4148 8.37585 21.2852 8.35695 21.1666 8.30666L20.9714 8.76699C21.1691 8.8508 21.385 8.88229 21.5984 8.85843L21.5428 8.36153ZM5.19271 18.2195L9.0818 22.1086L9.43535 21.7551L5.54626 17.866L5.19271 18.2195ZM2.30971 17.4482L2.78524 17.2937L2.30971 17.4482ZM2.30971 14.976L2.78524 15.1306L2.30971 14.976ZM12.1102 24.7765L11.9556 24.301L12.1102 24.7765ZM9.63801 24.7765L9.79252 24.301L9.63801 24.7765ZM23.6913 13.7564L24.0908 14.0571L23.6913 13.7564ZM23.6913 8.94527L24.0908 8.64458L23.6913 8.94527ZM13.5249 3.25695L13.2486 2.84023L13.5249 3.25695ZM17.9458 3.25695L18.2221 2.84023L17.9458 3.25695ZM22.4656 14.3305L15.046 21.7501L15.7531 22.4572L23.1727 15.0376L22.4656 14.3305ZM6.70215 21.7501L5.33611 20.384L4.62901 21.0911L5.99505 22.4572L6.70215 21.7501ZM5.33612 12.0402L12.5406 4.8357L11.8335 4.12859L4.62901 11.3331L5.33612 12.0402ZM18.9301 4.8357L22.4656 8.37123L23.1727 7.66413L19.6372 4.12859L18.9301 4.8357ZM5.33611 20.384C4.53825 19.5862 3.96138 19.0088 3.54456 18.5178C3.13153 18.0312 2.90509 17.6626 2.78524 17.2937L1.83418 17.6027C2.01108 18.1471 2.32903 18.6311 2.78222 19.1649C3.23162 19.6943 3.84281 20.3049 4.62901 21.0911L5.33611 20.384ZM4.62901 11.3331C3.84281 12.1193 3.23162 12.7299 2.78222 13.2593C2.32903 13.7931 2.01108 14.2771 1.83418 14.8215L2.78524 15.1306C2.90509 14.7617 3.13153 14.393 3.54456 13.9065C3.96139 13.4155 4.53825 12.838 5.33612 12.0402L4.62901 11.3331ZM2.78524 17.2937C2.55683 16.5907 2.55683 15.8335 2.78524 15.1306L1.83418 14.8215C1.54052 15.7253 1.54052 16.6989 1.83418 17.6027L2.78524 17.2937ZM15.046 21.7501C14.2481 22.5479 13.6707 23.1248 13.1797 23.5416C12.6932 23.9547 12.3245 24.1811 11.9556 24.301L12.2647 25.252C12.8091 25.0751 13.2931 24.7572 13.8269 24.304C14.3563 23.8546 14.9669 23.2434 15.7531 22.4572L15.046 21.7501ZM5.99505 22.4572C6.78125 23.2434 7.39188 23.8546 7.92125 24.304C8.45508 24.7572 8.93907 25.0751 9.48351 25.252L9.79252 24.301C9.42364 24.1811 9.05496 23.9547 8.56843 23.5416C8.07743 23.1248 7.50002 22.5479 6.70215 21.7501L5.99505 22.4572ZM11.9556 24.301C11.2527 24.5294 10.4955 24.5294 9.79252 24.301L9.48351 25.252C10.3873 25.5457 11.3609 25.5457 12.2647 25.252L11.9556 24.301ZM23.1727 15.0376C23.6296 14.5808 23.8955 14.3165 24.0908 14.0571L23.2918 13.4557C23.1494 13.6449 22.9465 13.8496 22.4656 14.3305L23.1727 15.0376ZM22.4656 8.37123C22.9465 8.85212 23.1494 9.05675 23.2918 9.24597L24.0908 8.64458C23.8955 8.38514 23.6296 8.12093 23.1727 7.66413L22.4656 8.37123ZM24.0908 14.0571C25.2971 12.4546 25.2971 10.2471 24.0908 8.64458L23.2918 9.24597C24.2301 10.4924 24.2301 12.2093 23.2918 13.4557L24.0908 14.0571ZM12.5406 4.8357C13.2269 4.14943 13.5192 3.86065 13.8012 3.67367L13.2486 2.84023C12.8619 3.0966 12.4852 3.47684 11.8335 4.12859L12.5406 4.8357ZM19.6372 4.12859C18.9855 3.47684 18.6088 3.0966 18.2221 2.84023L17.6695 3.67367C17.9515 3.86065 18.2438 4.14943 18.9301 4.8357L19.6372 4.12859ZM13.8012 3.67367C14.9735 2.89637 16.4972 2.89637 17.6695 3.67367L18.2221 2.84023C16.7149 1.84084 14.7558 1.84084 13.2486 2.84023L13.8012 3.67367Z" fill="white" mask="url(#path-1-inside-1)"/>
</svg>
