<svg width="11" height="10" viewBox="0 0 11 10" fill="none" xmlns="http://www.w3.org/2000/svg">
<path d="M9.82322 9.67678C9.92086 9.77441 10.0791 9.77441 10.1768 9.67678C10.2744 9.57915 10.2744 9.42086 10.1768 9.32323L9.82322 9.67678ZM1.17678 0.323223C1.07915 0.225592 0.920854 0.225592 0.823223 0.323223C0.725592 0.420854 0.725592 0.579146 0.823223 0.676777L1.17678 0.323223ZM0.823226 9.32323C0.725595 9.42086 0.725595 9.57915 0.823226 9.67678C0.920857 9.77441 1.07915 9.77441 1.17678 9.67678L0.823226 9.32323ZM10.1768 0.676777C10.2744 0.579146 10.2744 0.420854 10.1768 0.323223C10.0791 0.225592 9.92085 0.225592 9.82322 0.323223L10.1768 0.676777ZM10.1768 9.32323L1.17678 0.323223L0.823223 0.676777L9.82322 9.67678L10.1768 9.32323ZM1.17678 9.67678L10.1768 0.676777L9.82322 0.323223L0.823226 9.32323L1.17678 9.67678Z" fill="black"/>
</svg>