<svg width="25" height="22" viewBox="0 0 25 22" fill="none" xmlns="http://www.w3.org/2000/svg">
<path d="M6.56627 11.99L6.4615 12.217L6.46151 12.217L6.56627 11.99ZM0.696626 9.28102L0.591864 9.50801L0.591864 9.50801L0.696626 9.28102ZM0.761911 7.98531L0.680698 7.74887L0.680697 7.74887L0.761911 7.98531ZM22.9143 0.339724L22.8295 0.104525L22.8295 0.104525L22.9143 0.339724ZM23.8372 1.15244L23.5932 1.09776L23.5932 1.09776L23.8372 1.15244ZM19.475 20.6164L19.231 20.5617L19.231 20.5617L19.475 20.6164ZM18.178 21.0525L18.0166 21.2434L18.0166 21.2434L18.178 21.0525ZM10.1572 14.2749L10.3186 14.0839L10.3186 14.0839L10.1572 14.2749ZM18.9651 4.20466C19.0805 4.12888 19.1127 3.97389 19.0369 3.85847C18.9611 3.74305 18.8061 3.71092 18.6907 3.7867L18.9651 4.20466ZM6.66306 11.9828L6.52584 11.7738L6.52584 11.7738L6.66306 11.9828ZM10.1502 14.1286L10.3291 14.3033L10.3296 14.3027L10.1502 14.1286ZM7.39916 21.2658L7.15003 21.2866C7.15833 21.386 7.22489 21.4709 7.31939 21.5027C7.4139 21.5345 7.51827 21.5072 7.58498 21.433L7.39916 21.2658ZM21.1057 2.55276L21.2394 2.76397L21.2394 2.76397L21.1057 2.55276ZM18.8975 3.65531C18.7808 3.72918 18.7462 3.88363 18.82 4.00028C18.8939 4.11692 19.0484 4.1516 19.165 4.07772L18.8975 3.65531ZM21.2309 2.70688L21.4104 2.88096L21.4104 2.88096L21.2309 2.70688ZM6.67103 11.763L0.801387 9.05402L0.591864 9.50801L6.4615 12.217L6.67103 11.763ZM0.843124 8.22176C8.22561 5.686 15.6476 3.22372 22.999 0.574922L22.8295 0.104525C15.4827 2.75166 8.06992 5.21081 0.680698 7.74887L0.843124 8.22176ZM23.5932 1.09776L19.231 20.5617L19.7189 20.671L24.0811 1.20711L23.5932 1.09776ZM18.3393 20.8615L12.326 15.7802L12.0033 16.1621L18.0166 21.2434L18.3393 20.8615ZM12.326 15.7802L10.3186 14.0839L9.99584 14.4658L12.0033 16.1621L12.326 15.7802ZM18.6907 3.7867L6.52584 11.7738L6.80027 12.1918L18.9651 4.20466L18.6907 3.7867ZM22.999 0.574922C23.3345 0.45406 23.6709 0.751078 23.5932 1.09776L24.0811 1.20711C24.2454 0.474291 23.5349 -0.149619 22.8295 0.104525L22.999 0.574922ZM19.231 20.5617C19.1407 20.9648 18.6548 21.1281 18.3393 20.8615L18.0166 21.2434C18.619 21.7524 19.5464 21.4405 19.7189 20.671L19.231 20.5617ZM10.3186 14.0839C10.3851 14.1401 10.3899 14.241 10.3291 14.3033L9.97134 13.9539C9.82936 14.0993 9.84062 14.3347 9.99584 14.4658L10.3186 14.0839ZM0.801387 9.05402C0.433121 8.88406 0.460406 8.35321 0.843124 8.22175L0.680697 7.74887C-0.129261 8.02708 -0.184879 9.14952 0.591864 9.50801L0.801387 9.05402ZM6.46151 12.217C6.57121 12.2676 6.69927 12.2581 6.80027 12.1918L6.52584 11.7738C6.56913 11.7454 6.62401 11.7413 6.67102 11.763L6.46151 12.217ZM9.92991 13.9755L7.16577 21.1762L7.63256 21.3554L10.3967 14.1547L9.92991 13.9755ZM7.6483 21.245L6.88186 12.0699L6.3836 12.1115L7.15003 21.2866L7.6483 21.245ZM7.58498 21.433L12.3505 16.1384L11.9788 15.8039L7.21335 21.0985L7.58498 21.433ZM12.3505 16.1384L12.3981 16.0855L12.0265 15.751L11.9788 15.8039L12.3505 16.1384ZM20.9719 2.34156L18.8975 3.65531L19.165 4.07772L21.2394 2.76397L20.9719 2.34156ZM10.3296 14.3027L21.4104 2.88096L21.0515 2.5328L9.97076 13.9545L10.3296 14.3027ZM21.2394 2.76397C21.2106 2.78224 21.1697 2.79169 21.1274 2.78275C21.089 2.77464 21.0608 2.754 21.0428 2.73186C21.0248 2.70973 21.0103 2.67786 21.0102 2.63865C21.0101 2.59538 21.0277 2.5573 21.0515 2.5328L21.4104 2.88096C21.6991 2.58337 21.3222 2.11973 20.9719 2.34156L21.2394 2.76397Z" fill="white"/>
</svg>
