<svg width="12" height="15" viewBox="0 0 12 15" fill="none" xmlns="http://www.w3.org/2000/svg">
<path d="M1.90755 13.9065C1.875 14.0407 1.95738 14.1758 2.09156 14.2084C2.22574 14.2409 2.3609 14.1585 2.39346 14.0244L1.90755 13.9065ZM5.55413 0.9973C5.58668 0.863122 5.5043 0.727958 5.37012 0.695403C5.23594 0.662848 5.10078 0.74523 5.06823 0.879409L5.55413 0.9973ZM6.98665 13.9065C6.9541 14.0407 7.03648 14.1758 7.17066 14.2084C7.30484 14.2409 7.44 14.1585 7.47256 14.0244L6.98665 13.9065ZM10.6332 0.9973C10.6658 0.863122 10.5834 0.727958 10.4492 0.695403C10.315 0.662848 10.1799 0.74523 10.1473 0.879409L10.6332 0.9973ZM1.72168 4.45487C1.58361 4.45487 1.47168 4.5668 1.47168 4.70487C1.47168 4.84294 1.58361 4.95487 1.72168 4.95487L1.72168 4.45487ZM11.7457 4.95485C11.8838 4.95485 11.9957 4.84292 11.9957 4.70485C11.9957 4.56678 11.8838 4.45485 11.7457 4.45485L11.7457 4.95485ZM0.478515 10.2688C0.340444 10.2688 0.228515 10.3807 0.228516 10.5188C0.228516 10.6568 0.340445 10.7688 0.478516 10.7688L0.478515 10.2688ZM10.5026 10.7688C10.6406 10.7688 10.7526 10.6568 10.7526 10.5188C10.7526 10.3807 10.6406 10.2688 10.5026 10.2688L10.5026 10.7688ZM2.39346 14.0244L5.55413 0.9973L5.06823 0.879409L1.90755 13.9065L2.39346 14.0244ZM7.47256 14.0244L10.6332 0.9973L10.1473 0.879409L6.98665 13.9065L7.47256 14.0244ZM1.72168 4.95487L11.7457 4.95485L11.7457 4.45485L1.72168 4.45487L1.72168 4.95487ZM0.478516 10.7688L10.5026 10.7688L10.5026 10.2688L0.478515 10.2688L0.478516 10.7688Z" fill="white"/>
</svg>
