<svg xmlns="http://www.w3.org/2000/svg" viewBox="0 0 587.82 551.97"><defs><style>.cls-1{fill:#fff;}</style></defs><g id="zaeblike" data-name="zaeblike"><path class="cls-1" d="M174.37,342.36a35.8,35.8,0,0,1,5.44-2.73,61.42,61.42,0,0,1,7.52-2.5,85.9,85.9,0,0,1,9.09-1.9,66.07,66.07,0,0,1,10.17-.76q16.75,0,24.2,4.85t7.45,14.1a22.66,22.66,0,0,1-.72,5.46,17.34,17.34,0,0,1-2.43,5.46,18.3,18.3,0,0,1-4.37,4.55,15.86,15.86,0,0,1-6.51,2.73v.61q8.3.76,12.53,5.61T241,390.41a20.54,20.54,0,0,1-2,9,19,19,0,0,1-6.23,7.2,34,34,0,0,1-10.67,4.85,57.45,57.45,0,0,1-15.46,1.82,69.43,69.43,0,0,1-11.46-.91,61.38,61.38,0,0,1-10-2.5,55.84,55.84,0,0,1-8.23-3.56,28.77,28.77,0,0,1-5.94-4.09l7.16-14.55a28.8,28.8,0,0,0,5.16,3.41,45.86,45.86,0,0,0,6.51,2.8,55.3,55.3,0,0,0,7.3,2,38.16,38.16,0,0,0,7.52.76,31.07,31.07,0,0,0,12.67-2.27q5.08-2.27,5.08-6.52,0-3.94-4.8-5.46t-14-1.52h-4.15v-13.8h5.87q7.3,0,10.81-2.43t3.51-5.91q0-4.09-4.08-5.84t-11.38-1.74a45.51,45.51,0,0,0-8.16.76,53.36,53.36,0,0,0-6,1.21v13H174.37Z"/><path class="cls-1" d="M261.71,341a75.2,75.2,0,0,1,13.25-4.7,71,71,0,0,1,17.83-2,37.38,37.38,0,0,1,12.67,1.89,21,21,0,0,1,8.45,5.38,20.76,20.76,0,0,1,4.65,8.34A38.6,38.6,0,0,1,320,360.85q0,7.73-.5,13.19t-.5,9.7q0,3.18.29,7.13.29,2.13.43,4.09H329v16.68H305l-1.88-10.31h-.71a25.4,25.4,0,0,1-8.11,8.11Q289,412.85,280,412.85q-10.68,0-16.94-6.06t-6.26-16.07a25.31,25.31,0,0,1,2.2-11,19.27,19.27,0,0,1,6.4-7.58,29.5,29.5,0,0,1,10.1-4.4,55.6,55.6,0,0,1,13.16-1.44,51.39,51.39,0,0,1,5.41.3q2.85.31,7,.61a16.57,16.57,0,0,0,.28-3v-2.88q0-5.76-3.13-8.26t-9.24-2.5a40.71,40.71,0,0,0-13.08,2,81.09,81.09,0,0,0-9.81,3.94Zm24.37,55.64q6.79,0,10.19-2.65a17.5,17.5,0,0,0,5-5.69v-9.1q-1.42-.3-4.25-.68a46.28,46.28,0,0,0-6.09-.38,27.76,27.76,0,0,0-5.38.53,17.18,17.18,0,0,0-4.81,1.67,9.6,9.6,0,0,0-3.4,3,7.46,7.46,0,0,0-1.27,4.4,9,9,0,0,0,2.34,6.59Q280.7,396.63,286.08,396.63Z"/><path class="cls-1" d="M411.2,403.6a25.43,25.43,0,0,1-4.8,3.56,45.36,45.36,0,0,1-6.87,3.26,50.79,50.79,0,0,1-8.66,2.43,53,53,0,0,1-10,.91,46.18,46.18,0,0,1-16.4-2.73,32.63,32.63,0,0,1-12.24-8,35.08,35.08,0,0,1-7.66-12.58,49.19,49.19,0,0,1-2.65-16.75,46.9,46.9,0,0,1,3-17.51,35.09,35.09,0,0,1,8.23-12.51,34,34,0,0,1,12.24-7.5,45.12,45.12,0,0,1,26.42-1,29.94,29.94,0,0,1,10.67,5.23,27.72,27.72,0,0,1,7.95,9.93q3.08,6.22,3.08,15.77a76.37,76.37,0,0,1-1.43,14.1H360.51a18.24,18.24,0,0,0,1.93,8.19,15.87,15.87,0,0,0,4.72,5.46A19.84,19.84,0,0,0,373.9,397a32,32,0,0,0,8.09,1,39.7,39.7,0,0,0,14.1-2.12,29.31,29.31,0,0,0,8.95-5.15Zm-30.93-54.12a22.37,22.37,0,0,0-7,1.08,19.15,19.15,0,0,0-5.94,3.17,17,17,0,0,0-4.37,5.17,16.66,16.66,0,0,0-2,7h35.22q0-7.57-3.94-12T380.27,349.48Z"/><path class="cls-1" d="M463.69,359.19h91v17.43h-91Z"/><path class="cls-1" d="M187.91,483.73a32.43,32.43,0,0,1,13.26-9.62,44.38,44.38,0,0,1,16.15-3,40.77,40.77,0,0,1,13.11,2.12,30.61,30.61,0,0,1,11.07,6.52,31.16,31.16,0,0,1,7.58,11.14,41.54,41.54,0,0,1,2.8,16,45.26,45.26,0,0,1-3.11,17.28,36.57,36.57,0,0,1-8.49,12.73,35.8,35.8,0,0,1-12.66,7.81A45.28,45.28,0,0,1,212,547.4a46,46,0,0,1-16.6-2.88,33.33,33.33,0,0,1-12.89-8.79,39.72,39.72,0,0,1-8.26-15,71,71,0,0,1-2.88-21.37,117.32,117.32,0,0,1,1.82-22.29,57.73,57.73,0,0,1,5.15-15.62,33.38,33.38,0,0,1,7.81-10.16,37.35,37.35,0,0,1,9.7-6,47.18,47.18,0,0,1,11.07-3.11q5.83-.91,11.9-1.52a133.68,133.68,0,0,0,13.49-1.9q5.61-1.14,8.34-3.71l.76,17.43a18.48,18.48,0,0,1-8.64,3.64A148.7,148.7,0,0,1,217.62,458a86.48,86.48,0,0,0-10.84,1.52,25.16,25.16,0,0,0-9.1,3.79,21.27,21.27,0,0,0-6.67,7.58,35.33,35.33,0,0,0-3.56,12.88Zm3.79,24.56a23.45,23.45,0,0,0,1.67,8.94,24.12,24.12,0,0,0,4.4,7.13,19.25,19.25,0,0,0,6.37,4.7,17.93,17.93,0,0,0,7.58,1.67,20.22,20.22,0,0,0,7.66-1.44,17.75,17.75,0,0,0,6.29-4.32,21,21,0,0,0,4.32-7.05,26.88,26.88,0,0,0,1.59-9.62,23.15,23.15,0,0,0-1.52-8.64,19,19,0,0,0-4.17-6.44,17.92,17.92,0,0,0-6.06-4,19.21,19.21,0,0,0-7.2-1.37,22,22,0,0,0-7.88,1.44,20.51,20.51,0,0,0-6.67,4.09,19.91,19.91,0,0,0-6.37,14.93Z"/><path class="cls-1" d="M318.59,510.72l.76-10.76h-.46l-36.54,45.33H266.89v-75.8H286.6v36.08l-.91,10.31h.61l36.54-46.39h15.46v75.8H318.59Z"/><path class="cls-1" d="M430.92,538a43.31,43.31,0,0,1-14.55,7,64,64,0,0,1-17.43,2.35,49.54,49.54,0,0,1-17.51-2.88,35.71,35.71,0,0,1-12.89-8.11,34.37,34.37,0,0,1-8-12.66,47.15,47.15,0,0,1-2.73-16.37,42.76,42.76,0,0,1,3.18-17,35.77,35.77,0,0,1,8.87-12.58A38.19,38.19,0,0,1,383.32,470a51.56,51.56,0,0,1,16.83-2.65,62,62,0,0,1,15.92,2,73.79,73.79,0,0,1,11.37,3.79V499.8H410.76V485.85a42.71,42.71,0,0,0-9.4-1.06,28.39,28.39,0,0,0-8.41,1.29,20.61,20.61,0,0,0-7.43,4.09,21.44,21.44,0,0,0-5.31,7,25.55,25.55,0,0,0-.38,19.1,20.85,20.85,0,0,0,12.2,11.9A27.13,27.13,0,0,0,402,530q8.64,0,14.17-2.43a56.78,56.78,0,0,0,8.26-4.24Z"/><path class="cls-1" d="M472.91,496.46c1.21-.2,2.6-.4,4.17-.53,4-.32,7.51-.57,13-.53a54,54,0,0,1,14.4,1.74,26.55,26.55,0,0,1,9.85,4.93,19.73,19.73,0,0,1,5.61,7.5,23.78,23.78,0,0,1,1.82,9.32q0,13.8-9.1,20.62t-29.87,6.82q-8.64,0-16.45-.3t-13.11-.76v-75.8h19.71Zm0,32.31a46.66,46.66,0,0,0,5.91.67q3.64.22,5.76.22,16.83,0,16.83-10.15a7.92,7.92,0,0,0-4.17-7.24q-4.17-2.46-12.2-2.46a57,57,0,0,0-9.47.52,20.71,20.71,0,0,0-2.65.52Z"/><path class="cls-1" d="M563.26,535.28a10.94,10.94,0,0,1,3.33-8.41,12.39,12.39,0,0,1,8.79-3.11q5.76,0,9.1,3.11a11,11,0,0,1,3.33,8.41,11.19,11.19,0,0,1-3.33,8.49q-3.34,3.18-9.1,3.18a12.21,12.21,0,0,1-8.79-3.18A11.19,11.19,0,0,1,563.26,535.28Zm2.12-96.12H585.7V489l-3.94,24.71H569.33L565.39,489Z"/><path class="cls-1" d="M404.16,186.38c-17.39-14.36-36.37,1.2-49.34,11.87l-76,71.38c-2.7-10.88-9.74-20.9-21.48-25.95a37.77,37.77,0,0,0-33.24,1.12c-1.89-15.5-10.23-29.08-23.18-34.64a42.59,42.59,0,0,0-33.73,0l44-154.53C221.94,20.73,204.76,6.34,193,2.4c-23.26-7.8-37.5,3.73-48.29,30.67L74.89,218.24c-11.16-1.71-35.49-1.75-47.5,9.63C11.84,242.62-3.08,291.57.55,313.33c1,6.79,1.9,13.74,2.76,20.81,8.37,68.23,6.92,95.32-1.65,135.84-.85,4-1.32,6.91-1.32,6.91L175.22,552a77.11,77.11,0,0,1-6.79-6.73,39.72,39.72,0,0,1-8.26-15c-.38-1.18-.7-2.42-1-3.69L19.71,466.63c7.61-41.6,8.69-68.18.55-134.57-.88-7.19-1.83-14.25-2.82-21.15-2.52-17.68,9.31-59.82,20.43-70.61,5-4.87,19.78-7.76,31.07-6.26l-10,26.52,15.69,6.74,86-228.08c5-11.71,10.94-25.13,25.64-21.14,4.73,1.28,16.48,7.08,8.62,32.82L142,237.6l-3.13,10.86,15.57,6.69s5.33-13.88,6.2-15.91a25.63,25.63,0,0,1,33.63-13.41c12.09,5.19,17,25.35,10,41.47l-3.37,7.84,15.69,6.74s1.09-2.53,3.36-7.84c5-11.75,16.55-20.75,30.69-14.68,11.47,4.93,14,19.19,11.42,27.58-1.14,3.7-2.91,9.48-4,12.76l9.45,4.06,98.55-92.71c16.75-14.64,22.33-15.51,27.23-11.51,3.1,2.53,6.93,5.72-.86,17-.56.77-44.72,61.49-76.13,107.94a29.92,29.92,0,0,1,8,6.08,30.5,30.5,0,0,1,4.37,6.1c31.14-46.25,77-109.34,77.69-110.25C420.29,206.29,412.85,193.55,404.16,186.38Z"/></g></svg>